<?xml version="1.0" standalone="no"?><!DOCTYPE svg PUBLIC "-//W3C//DTD SVG 1.1//EN" "http://www.w3.org/Graphics/SVG/1.1/DTD/svg11.dtd"><svg t="1586770538930" class="icon" viewBox="0 0 1036 1024" version="1.1" xmlns="http://www.w3.org/2000/svg" p-id="2299" xmlns:xlink="http://www.w3.org/1999/xlink" width="202.34375" height="200"><defs><style type="text/css"></style></defs><path d="M864 964.266667H172.8c-96 0-172.8-76.8-172.8-172.8V228.266667c0-96 76.8-172.8 172.8-172.8h691.2c96 0 172.8 76.8 172.8 172.8v563.2c0 96-78.933333 172.8-172.8 172.8zM172.8 153.6c-42.666667 0-74.666667 34.133333-74.666667 74.666667v563.2c0 40.533333 34.133333 74.666667 74.666667 74.666666h691.2c40.533333 0 74.666667-34.133333 74.666667-74.666666V228.266667c0-40.533333-34.133333-74.666667-74.666667-74.666667H172.8z" p-id="2300"></path><path d="M294.4 614.4h-49.066667v-183.466667H211.2v-42.666666h83.2v226.133333zM392.533333 614.4h-12.8v-136.533333h140.8v-46.933334h-138.666666v-42.666666h187.733333v134.4h-140.8v49.066666h140.8v42.666667h-177.066667zM817.066667 614.4h-189.866667v-42.666667h140.8v-49.066666h-119.466667v-42.666667h119.466667v-46.933333h-140.8v-44.8h189.866667v226.133333z" p-id="2301"></path></svg>